PathFileType	4	(X/Y/Z)	/Users/rkoike/Documents/python/sports2d/webcam_20250611_152632/webcam_20250611_152632_px_person00.trc
DataRate	CameraRate	NumFrames	NumMarkers	Units	OrigDataRate	OrigDataStartFrame	OrigNumFrames
30	30	12	22	m	30	2174	2485
Frame#	Time	Hip			RHip			RKnee			RAnkle			RBigToe			RSmallToe			RHeel			LHip			LKnee			LAnkle			LBigToe			LSmallToe			LHeel			Neck			Head			Nose			RShoulder			RElbow			RWrist			LShoulder			LElbow			LWrist			
		X1	Y1	Z1	X2	Y2	Z2	X3	Y3	Z3	X4	Y4	Z4	X5	Y5	Z5	X6	Y6	Z6	X7	Y7	Z7	X8	Y8	Z8	X9	Y9	Z9	X10	Y10	Z10	X11	Y11	Z11	X12	Y12	Z12	X13	Y13	Z13	X14	Y14	Z14	X15	Y15	Z15	X16	Y16	Z16	X17	Y17	Z17	X18	Y18	Z18	X19	Y19	Z19	X20	Y20	Z20	X21	Y21	Z21	X22	Y22	Z22
2174	72.49584004294148	620.6232430531524	719.0104932502362	0.0	497.6029032043647	712.5959837349691	0.0	325.23473478934125	692.9329062542289	0.0	1238.5640020370483	704.7274732589722	0.0	1505.6801757812502	-86.125	0.0	1424.5954589843752	62.69482421875	0.0	1088.2808869644264	727.0980207781423	0.0	733.9128291540828	709.5758357763568	0.0	904.3923038192205	724.8014069522335	0.0	1243.4522981643677	709.6157693862915	0.0			0.0			0.0			0.0	621.7520069641558	427.11987030713556	0.0	587.4835968863715	152.09348295349676	0.0	592.5568098571608	307.4035882032591	0.0	424.0955625547395	457.9920918854936	0.0	265.70619934836895	680.8506880975186	0.0	506.3963156764893	711.2999647451692	0.0	834.1231393434878	498.11631550232386	0.0	910.3797882287649	709.2270423485945	0.0	881.0334554278538	715.3965569083886	0.0
2175	72.52918679549113	617.2693435680884	720.3218297317893	0.0	494.6232372309494	713.9656077699346	0.0	315.24805290080354	703.7699070882538	0.0	1238.5640020370483	704.7274732589722	0.0	1505.6801757812502	-86.125	0.0	1424.5954589843752	62.69482421875	0.0	1088.2808869644264	727.0980207781423	0.0	735.2646200047433	710.7231647918286	0.0	904.3923040900905	724.8014068240424	0.0	1243.4522981643677	709.6157693862915	0.0			0.0			0.0			0.0	620.4705582342781	427.93524677676095	0.0	585.912128402147	152.16702359387918	0.0	592.0061051881505	309.8308797109357	0.0	421.4988716974077	456.8302086598679	0.0	265.46216587447674	680.1669610585791	0.0	496.77268597154836	709.4461063470101	0.0	833.554221614215	497.26368407350196	0.0	909.0911004731419	708.2244464178845	0.0	874.4774649788745	718.8218663642944	0.0
2176	72.56253354804079	614.7957011528113	718.8945998666107	0.0	490.42864837532875	712.3287763690008	0.0	303.28021290658813	712.5236216267995	0.0	1238.5640020370483	704.7274732589722	0.0	1505.6801757812502	-86.125	0.0	1424.5954589843752	62.69482421875	0.0	1088.2808869644264	727.0980207781423	0.0	731.7250688761109	708.9556027359982	0.0	904.3923041602181	724.8014067908541	0.0	1243.4522981643677	709.6157693862915	0.0			0.0			0.0			0.0	618.8989980471473	429.4120203874576	0.0	585.6891398911491	152.49979069251398	0.0	591.7872577172428	311.3202658226025	0.0	421.51081017208776	456.4975316466658	0.0	263.9853802060651	680.1889618492637	0.0	488.4505922136788	708.3063827389052	0.0	831.3538982989297	497.08468738303606	0.0	908.7275991044196	706.2344283323791	0.0	865.1196877673482	721.4797014384451	0.0
2177	72.59588030059044	614.7410973798135	715.1760004216288	0.0	485.60835687599894	708.5073122548504	0.0	307.30166775105357	707.5722870060417	0.0	1238.5640020370483	704.7274732589722	0.0	1505.6801757812502	-86.125	0.0	1424.5954589843752	62.69482421875	0.0	1088.2808869644264	727.0980207781423	0.0	730.6217758506107	706.4664485951083	0.0	904.3923041330916	724.8014068036919	0.0	1243.4522981643677	709.6157693862915	0.0			0.0			0.0			0.0	617.7816182134579	430.22073372882494	0.0	585.4876355841711	153.9195001905061	0.0	591.3933954035383	311.1978649697997	0.0	422.830954319364	457.95683381973527	0.0	262.0417691990356	681.0749330679388	0.0	492.1221978967806	708.8993389415779	0.0	829.3626967162537	497.94641714181785	0.0	909.7070186763615	704.9332137071466	0.0	864.7862793728174	720.0205641811926	0.0
2178	72.62922705314008	616.0227427693575	715.0914286051596	0.0	482.87172093904593	707.9882466264528	0.0	314.77829120405954	695.8194005957031	0.0	1238.5640020370483	704.7274732589722	0.0	1505.6801757812502	-86.125	0.0	1424.5954589843752	62.69482421875	0.0	1088.2808869644264	727.0980207781423	0.0	733.176196889328	708.1330069919726	0.0	904.3923041093354	724.8014068149347	0.0	1243.4522981643677	709.6157693862915	0.0			0.0			0.0			0.0	617.5039074471871	428.8710178815643	0.0	585.3160620304824	152.60203039638776	0.0	591.7092366306678	310.7120296126734	0.0	423.1944737401638	458.0801429205345	0.0	262.4723479101953	680.5863875253325	0.0	500.85958836819225	710.8424949310597	0.0	829.2098490300011	497.57178250515824	0.0	912.0647842970916	705.4455437849215	0.0	870.5125158398788	718.2679702370028	0.0
2179	72.66257380568973	615.1074477149045	718.7613828832135	0.0	484.34076833154296	710.5269316647133	0.0	309.02412290735265	689.4574790505814	0.0	1238.5640020370483	704.7274732589722	0.0	1505.6801757812502	-86.125	0.0	1424.5954589843752	62.69482421875	0.0	1088.2808869644264	727.0980207781423	0.0	732.0623850955512	710.921271016532	0.0	904.3923041058687	724.8014068165753	0.0	1243.4522981643677	709.6157693862915	0.0			0.0			0.0			0.0	618.0539940826278	427.74219395120195	0.0	585.7395097037232	149.23030976093514	0.0	593.3461832605642	311.67556583670444	0.0	422.52821818603167	456.1291757596113	0.0	265.2585770616879	679.1327115141435	0.0	501.69627380904046	711.4806916965941	0.0	830.1353380991843	495.5193024632396	0.0	913.5623958753758	706.7026818999366	0.0	874.5149513458445	718.2232010000818	0.0
2180	72.6959205582394	610.8991715118407	719.1344594893848	0.0	485.5991951336941	710.059690032165	0.0	300.26192919565085	689.2241442530371	0.0	1238.5640020370483	704.7274732589722	0.0	1505.6801757812502	-86.125	0.0	1424.5954589843752	62.69482421875	0.0	1088.2808869644264	727.0980207781423	0.0	727.8443734180279	708.4465856415209	0.0	904.3923041092394	724.80140681498	0.0	1243.4522981643677	709.6157693862915	0.0			0.0			0.0			0.0	619.3005328992564	429.1717024758079	0.0	587.2464207721989	149.39889105327862	0.0	595.5388787640046	313.74038121759463	0.0	422.99110354343594	455.8212877176334	0.0	266.1340936843913	679.0474075702299	0.0	496.6197334477312	709.4472593241833	0.0	830.8750216960135	494.97270279036366	0.0	912.3813823100362	706.8499234268073	0.0	876.5126062410861	716.2436525157709	0.0
2181	72.72926731078904	608.7724354055506	717.3256139222789	0.0	483.1037828465925	707.3117836718582	0.0	306.487093182147	691.8791215514321	0.0	1238.5640020370483	704.7274732589722	0.0	1505.6801757812502	-86.125	0.0	1424.5954589843752	62.69482421875	0.0	1088.2808869644264	727.0980207781423	0.0	730.5073095294716	704.877515521449	0.0	904.3923041111638	724.8014068140692	0.0	1243.4522981643677	709.6157693862915	0.0			0.0			0.0			0.0	620.9087678836754	430.80958695033365	0.0	590.1530205816381	152.99025044691982	0.0	597.021837536761	314.79773877674745	0.0	425.48385804848004	458.1997424300343	0.0	263.30456291191405	680.0110204134106	0.0	494.42139526044707	707.0869247872472	0.0	831.857670653213	496.9093431614734	0.0	910.5122201325064	705.5791042881066	0.0	877.6084517773784	712.4579112818012	0.0
2182	72.76261406333869	615.0872569617418	725.9243268200897	0.0	483.20406368242277	712.3953220869922	0.0	326.1133844091996	700.7090551517603	0.0	1238.5640020370483	704.7274732589722	0.0	1505.6801757812502	-86.125	0.0	1424.5954589843752	62.69482421875	0.0	1088.2808869644264	727.0980207781423	0.0	741.8765555638076	713.6083041368046	0.0	904.3923041112149	724.8014068140451	0.0	1243.4522981643677	709.6157693862915	0.0			0.0			0.0			0.0	622.3786362461384	429.5329885646365	0.0	593.0747985910573	153.45095231185383	0.0	597.5727162864182	313.88321308776426	0.0	427.8233844463754	459.4555554794749	0.0	260.75606457586167	679.8515346512432	0.0	494.5053993140594	707.4628384307287	0.0	834.0471299747461	498.1846010739952	0.0	910.9176829336902	704.8136073577858	0.0	871.4996198619369	713.6965075035524	0.0
2183	72.79596081588834	628.5712040261604	748.0832189568476	0.0	491.9121191987746	729.8699421861337	0.0	345.53323882520976	717.8342540112407	0.0	1238.5640020370483	704.7274732589722	0.0	1505.6801757812502	-86.125	0.0	1424.5954589843752	62.69482421875	0.0	1088.2808869644264	727.0980207781423	0.0	753.4980386864739	738.2732148183034	0.0	904.3923041108569	724.8014068142146	0.0	1243.4522981643677	709.6157693862915	0.0			0.0			0.0			0.0	623.3149892439316	426.8954495318641	0.0	593.5507037867753	148.38126880616116	0.0	598.1965243507333	312.2950906592969	0.0	427.3881327623618	457.9027080358312	0.0	261.87994833138964	678.9531570384239	0.0	494.8634553234544	711.4081561265965	0.0	836.5204973265071	497.36081806802235	0.0	913.4209271238218	706.9163878070902	0.0	853.3255346560721	723.640640948113	0.0
2184	72.829307568438	641.2994816520675	769.9253531824639	0.0	503.45446703910346	750.1345726577009	0.0	356.79252728832506	735.4476289358432	0.0	1238.5640020370483	704.7274732589722	0.0	1505.6801757812502	-86.125	0.0	1424.5954589843752	62.69482421875	0.0	1088.2808869644264	727.0980207781423	0.0	760.0304286693068	764.9933215482006	0.0	904.3923041107147	724.8014068142819	0.0	1243.4522981643677	709.6157693862915	0.0			0.0			0.0			0.0	623.6947296165152	425.9888553978601	0.0	591.5439574965767	142.26659484121853	0.0	599.4257675509901	311.62587047235775	0.0	424.7158173545387	456.05933925558406	0.0	265.0064760186992	679.1064768310499	0.0	497.768245095	716.8607285966631	0.0	837.489048923331	496.2585266689909	0.0	915.9226775847494	711.2670914150589	0.0	831.5253485579317	736.4291093847389	0.0
2185	72.86265432098764	647.4568058270331	779.9349539354849	0.0	509.49243669673433	761.5070092020794	0.0	360.2838474990317	744.563612667724	0.0	1238.5640020370483	704.7274732589722	0.0	1505.6801757812502	-86.125	0.0	1424.5954589843752	62.69482421875	0.0	1088.2808869644264	727.0980207781423	0.0	762.2370311484012	779.2623580117248	0.0	904.3923041107323	724.8014068142735	0.0	1243.4522981643677	709.6157693862915	0.0			0.0			0.0			0.0	623.7550429947014	426.66288481874903	0.0	589.49699894059	139.18879797716903	0.0	600.5162275676997	311.8601689381509	0.0	422.5167395668158	455.59336444757497	0.0	267.05534076216435	679.9953015068479	0.0	501.7268285610269	720.4980620781392	0.0	837.0648073494034	496.01379059651873	0.0	917.1888414771005	714.6096574282525	0.0	818.8167815533685	743.9448902843016	0.0
